<?xml version="1.0"?><svg version="1.2" baseProfile="tiny-ps" viewBox="0 0 300 300" xmlns="http://www.w3.org/2000/svg" xmlns:xlink="http://www.w3.org/1999/xlink"><title>Militarycruisedeals</title><g><g fill="#fdfeff" transform="matrix(.1 0 0 -.1 0 300)"><path d="M0 1515V30h2970v2970H0V1515z"/></g><g fill="#e5a58b" transform="matrix(.1 0 0 -.1 0 300)"><path d="M210 2001V1001l188-142c103-79 225-172 272-208 227-174 794-603 809-613l18-11 408 314c409 315 535 411 742 569l112 85 1 1003v1002H210v-999zm1141 229 19-11v-57l-12-9c-7-5-58-22-113-37-103-29-423-146-644-236-69-27-126-48-128-46-18 17 414 234 667 335 96 39 179 71 183 71 5 0 17-5 28-10zm-443-42c7-7 12-22 12-34v-23l-142-70c-79-38-209-107-290-154-81-46-145-81-143-76 9 13 185 159 265 218 41 31 111 77 154 103l79 48h53l12-12zm1001-1c6-8 14-28 17-45l6-30-12-36-12-36h-26c-250 0-757-72-1125-160-45-11-82-18-84-16-6 6 238 93 394 141 244 76 721 193 794 194l37 1 11-13zm461-225c94-20 244-65 267-79l11-8h-383l-265-149c-146-82-269-151-275-154l-10-5 10 10c6 6 91 75 190 154l180 143-35 8c-19 5-125 11-235 14l-200 7-170-12c-150-11-353-32-440-46l-30-5 55 20c121 45 334 88 570 114l125 15 270-4 270-3 95-20z"/></g><g fill="#97adcd" transform="matrix(.1 0 0 -.1 0 300)"><path d="M210 2000v-999l231-176c126-96 232-175 235-175 2 0 4 205 4 455v455h40V623l23-21c13-12 26-22 30-22h7v980h40V535l330-250c182-137 336-251 343-252l12-2 340 262 340 263 3 502 2 502h30V587l33 25 32 26 3 461 2 461h40V678l15 5c8 4 104 75 214 159l200 153v1003l1 1002h-430v-650h-40v650h-70v-650h-30v650H820v-650h-40v650h-60v-650h-40v650H210V2000zm1141 230 19-11v-57l-12-9c-7-5-58-22-113-37-103-29-423-146-644-236-69-27-126-48-128-46-18 17 414 234 667 335 96 39 179 71 183 71 5 0 17-5 28-10zm-443-42c7-7 12-22 12-34v-23l-142-70c-79-38-209-107-290-154-81-46-145-81-143-76 9 13 185 159 265 218 41 31 111 77 154 103l79 48h53l12-12zm1001-1c6-8 14-28 17-45l6-30-12-36-12-36h-26c-250 0-757-72-1125-160-45-11-82-18-84-16-6 6 238 93 394 141 244 76 721 193 794 194l37 1 11-13zm461-225c94-20 244-65 267-79l11-8h-383l-265-149c-146-82-269-151-275-154l-10-5 10 10c6 6 91 75 190 154l180 143-35 8c-19 5-125 11-235 14l-200 7-170-12c-150-11-353-32-440-46l-30-5 55 20c121 45 334 88 570 114l125 15 270-4 270-3 95-20z"/></g><g fill="#c76f36" transform="matrix(.1 0 0 -.1 0 300)"><path d="m220 1998 1-1003 222-168 222-167 5 452 5 453 23 3 22 3V623l23-21c13-12 26-22 30-22h7l2 492 3 493 23 3 22 3V533l325-246c179-136 330-248 335-250 5-1 163 115 350 258l339 260 3 505 3 505 18 3 17 3V587l33 25 32 26 3 466 2 467 23-3 22-3 5-441 5-441 208 160 207 160v1997h-420l-2-327-3-328-22-3-23-3v661h-70v-661l-17 3-18 3-3 328-2 327H830l-2-327-3-328h-40l-3 328-2 327h-60v-661l-22 3-23 3-3 328-2 327H220V1998zm1145 222 17-19-6-24-6-24-27-11c-16-5-82-26-148-47-117-36-460-163-659-245-55-22-101-38-103-36-9 8 168 111 332 192 94 46 251 118 350 158l180 75h26l26 1 18-20zm545-30 20-20v-100l-20-20-20-20h-77c-231 0-571-49-991-141-182-40-233-45-150-16 24 8 98 36 165 60 145 54 372 122 573 173 168 42 437 102 463 103l17 1 20-20zm-1002 1 14-8-4-29-3-28-170-86c-93-47-215-112-270-144-55-33-111-66-125-74l-25-14 72 70c87 84 226 190 347 266l89 56h31c17 0 37-4 44-9zm1407-215c117-20 232-51 296-79l51-22-198-1h-199l-284-162c-156-89-286-161-288-159-1 2 87 75 197 162s199 159 197 161c-1 2-86 8-187 13l-185 11-185-10c-101-6-243-17-315-25-71-8-155-17-185-20l-55-6 35 16c95 44 389 102 660 130l135 14 210-4 210-4 90-15z"/></g><g fill="#387ec5" transform="matrix(.1 0 0 -.1 0 300)"><path d="m220 1998 1-1003 222-168 222-167 5 452 5 453h50l3-474 2-475 17-18c9-10 20-18 24-18h9l2 492 3 493 23 3 22 3V533l325-246c179-136 330-248 335-250 5-1 163 115 350 258l339 260 3 505 3 504 75 1h75l5-441 5-441 208 160 207 160v1997h-420l-2-327-3-328h-75l-75 1-3 327-2 327H830l-2-327-3-328h-40l-3 328-2 327h-50l-2-327-3-328h-50l-3 328-2 327H220V1998zm274 840c9-12 16-32 16-43v-22l-24-22-24-23-27 4-28 3-20 26-19 27 7 21c3 11 13 28 21 36l15 15h68l15-22zm2120 6c25-24 24-68-1-96l-16-18h-57l-20 20-20 20v23c0 12 7 33 16 45l15 22h68l15-16zm-1249-624 17-19-6-24-6-24-27-11c-16-5-82-26-148-47-117-36-460-163-659-245-55-22-101-38-103-36-9 8 168 111 332 192 94 46 251 118 350 158l180 75h26l26 1 18-20zm545-30 20-20v-100l-20-20-20-20h-77c-231 0-571-49-991-141-182-40-233-45-150-16 24 8 98 36 165 60 145 54 372 122 573 173 168 42 437 102 463 103l17 1 20-20zm-1002 1 14-8-4-29-3-28-170-86c-93-47-215-112-270-144-55-33-111-66-125-74l-25-14 72 70c87 84 226 190 347 266l89 56h31c17 0 37-4 44-9zm1407-215c117-20 232-51 296-79l51-22-198-1h-199l-284-162c-156-89-286-161-288-159-1 2 87 75 197 162s199 159 197 161c-1 2-86 8-187 13l-185 11-185-10c-101-6-243-17-315-25-71-8-155-17-185-20l-55-6 35 16c95 44 389 102 660 130l135 14 210-4 210-4 90-15zM490 1128l20-22v-46l-20-20-20-20h-27c-34 0-46 8-62 37-15 30-14 36 10 67l20 26h58l21-22zm2123 5c25-29 26-73 1-97l-15-16h-68l-15 22c-9 12-16 33-16 45v23l20 20 20 20h57l16-17zM1532 353l18-16v-66l-22-15c-12-9-33-16-45-16h-23l-20 20-20 20v23c0 12 7 33 16 45l15 22h62l19-17z"/></g><g fill="#a05734" transform="matrix(.1 0 0 -.1 0 300)"><path d="M730 2675v-325h50v650h-50v-325zm-302 188c6-2 18-2 25 0l12 5h-50l13-5zm2130 0c6-2 18-2 25 0l12 5h-50l13-5zm-315-1300c9-2 23-2 30 0l12 5h-60l18-5zM730 1087V613l18-16c10-10 22-17 25-17h7v980h-50v-473zm-292-74c7-3 16-2 19 1 4 3-2 6-13 5l-19-1 13-5zm2120 0c7-3 16-2 19 1 4 3-2 6-13 5l-19-1 13-5zM1478 373c7-3 16-2 19 1 4 3-2 6-13 5l-19-1 13-5zm42-7c0-2 8-10 18-17l17-14-14 18c-13 16-21 21-21 13zm31-62 1-19 5 13c3 7 2 16-1 19-3 4-6-2-5-13z"/></g></g></svg>