<?xml version="1.0"?><svg version="1.2" baseProfile="tiny-ps" viewBox="0 0 300 300" xmlns="http://www.w3.org/2000/svg" xmlns:xlink="http://www.w3.org/1999/xlink"><title>MilitatyCruiseDeals</title><g><g fill="#e9e9ea" transform="matrix(.1 0 0 -.1 0 300)"><path d="M0 1500V0h3000v3000H0V1500z"/></g><g fill="#a1a6a8" transform="matrix(.1 0 0 -.1 0 300)"><path d="M0 1500V0h3000v3000H0V1500zm765 1275v-188l-12-4-13-5v394l13-4 12-5v-188zm105-1v-196l-12 4-13 5-3 191-2 192h30v-196zm1360 1v-195h-30v390h30v-195zm102 185c2-5 2-93 0-195l-3-185h-19v390h9c5 0 11-4 13-10zM748 2418c15-130 15-146-2-163l-13-13-12 69c-7 38-16 69-21 69-4 0-10-25-13-56l-6-55-13-16-13-16-6 59c-4 32-7 96-8 142l-1 82h96l12-102zm182-23-6-125-16-12c-9-7-18-22-21-33s-5 23-6 75l-2 95-13-18c-7-9-16-34-20-55-3-21-15-55-26-77l-21-40 5 35c3 19 13 90 22 158l17 122h92l-5-125zm122-1-3-125-17-6c-9-4-20-11-24-17l-8-11v285h55l-3-126zm120 0-3-126-19-5-19-5-4-27c-2-14-5 45-6 132l-1 157h55l-3-126zm225 29c-4-54-7-113-7-130v-33h-30l-6-27c-3-16-7-32-9-38-2-5-4 65-4 158l-1 167h63l-6-97zm254 75-8-23-34-5-34-5-3-80c-1-44-4-90-7-102l-5-23h-29l-4-17c-3-10-5 37-6 105l-1 122h-80v50h219l-8-22zm208-102 13-124-6-11-7-11-10 5-9 6v-61l-42 2-43 1 38 4 37 4-1 27c0 15-8 68-18 117l-18 90-10-25c-6-14-16-55-23-92l-12-68h-27l-7-35c-3-20-8-34-11-31-5 4 33 274 43 309l5 17h95l13-124zm266 112 25-11 7-25c3-13 3-49 0-79l-6-55-21-23-22-23 19-10 18-10-7-8-7-7-45 12-44 11-35-15-36-15-4-32c-2-18-5 42-5 135l-2 167h139l26-12zm160-79 19-90 13-10 12-10 10 38c5 21 15 58 21 83s13 53 16 63l5 17h55l-44-131-45-130-35 3-34 3-39 125c-22 68-39 126-39 127 0 2 15 3 33 3h33l19-91zm-1022-306c-13-2-33-2-45 0l-23 4h90l-22-4zm-522-83 19-11v-69h-29l-3 28-3 27h-50l-10-72c-5-39-13-75-17-78l-7-7-7 37c-3 20-4 54-1 76l5 41 18 19 17 19h24c13 0 33-5 44-10zm163 0 26-10v-93l-16-19-17-18 13-15 12-15h-10c-6 0-14 5-17 10-3 6-17 10-30 10h-24l-15-15c-8-8-17-15-20-15s-6 43-6 95v95h39c22 0 51-4 65-10zm105-67c-4-42-11-88-15-102l-7-26-8 45c-10 58-11 145-2 153 3 4 14 7 23 7h16l-7-77zm93 5c-1-40-6-84-9-98l-6-25-7 30c-10 39-12 150-3 158 3 4 11 7 17 7h12l-4-72zm80-5c-2-43-7-87-12-98s-11-27-13-35c-3-8-6 36-6 98l-1 112h35l-3-77zm149 67 19-11v-47l-14-5-15-6-3 22-3 22h-50l-3-25-3-25 36-39c58-65 43-77-23-20l-42 36v71l17 19 16 18h24c13 0 33-5 44-10zm183-4-6-15-36-3-37-3-3-47-3-48h72l-6-10-6-10h-58l-13-22-12-23-7 45c-10 59-11 135-2 143 3 4 32 7 64 7h58l-5-14zm210 4 26-10v-149l-10-6-10-6-2-37c-1-20-4 13-7 73l-6 110-24 3-24 4-8-14c-5-7-9-40-9-73v-61l-9-9c-5-6-11-19-14-30s-5 33-6 98l-1 117h39c22 0 51-4 65-10zm196-4v-15l-42-3-43-3-3-47-3-48h85l-9-9c-6-5-23-11-40-13l-30-3-17-35-18-35v225h120v-14zm144-69 7-84-10-26-11-27-27 1-28 2 28 4 27 4v11c0 6-5 40-11 75l-11 63h-8c-5 0-13-21-19-47-5-27-17-66-26-88l-15-40 4 25c2 14 10 67 17 118l12 92h64l7-83zm105 1c-3-46-11-96-17-113l-10-30-1 113-1 112h35l-6-82zm219 70c7-7 12-22 12-34v-22l-15-6-15-5v49h-50l-6-26-7-26 44-44 43-44-7-6-6-7-28 18c-15 10-38 27-50 38l-23 20v67l20 20 20 20h56l12-12zM755 1850c-3-5-10-10-16-10-5 0-9 5-9 10 0 6 7 10 16 10h15l-6-10zm495-14c0-3-4-8-10-11l-10-6v10c0 6 5 11 10 11 6 0 10-2 10-4zm1060 0c0-2-7-6-15-10l-15-5v9c0 6 7 10 15 10s15-2 15-4zM770 1170V641l-15 5-15 6v1048h30v-530zm100-46V548l-12 4-13 5-3 571-2 572h30v-576zm1360 12V572l-15-12-15-12v1152h30v-564zm100 30V631l-10-6-10-6v1081h20v-534zm-833 69 3-11-89-18c-50-10-147-37-218-61-70-23-129-42-131-40-5 5 167 75 270 110l103 35 29-2 29-3 4-10zm-267-15c8-5 12-10 8-10-3 0-44-16-90-36-88-37-91-33-12 21 52 36 70 41 94 25zm501-19 23-19-84-6c-180-14-296-32-530-81-14-3 6 6 44 20 109 39 360 90 512 104 7 1 22-7 35-18zm289-87c94-15 125-24 79-24-13 0-55-7-94-16-38-9-101-17-140-19l-70-3 28 11c40 16 33 23-25 31-120 14-344 6-553-20l-50-7 6 7c11 11 252 48 373 55 148 10 320 4 446-15zm-837-51c-7-2-19-2-25 0l-13 5h50l-12-5zm833 1385c-3-13-6-47-6-75v-53h80l5 23c4 13 5 46 3 73l-3 49-36 3-36 3-7-23zM834 1996c-3-13-4-37-2-52l3-29 24-3 24-4 8 14c10 15 12 60 3 82l-6 16h-48l-6-24z"/></g><g fill="#275c88" transform="matrix(.1 0 0 -.1 0 300)"><path d="M0 1500V0h3000v3000H0V1500zm770 1275v-195h-30l-2 173-3 172-220 2-220 1-3 21-3 21h481v-195zm1460 0v-195h-30v350l-662-2-663-3-3-172-2-173h-30v390h1390v-195zm530 187c0-4-5-13-12-20l-12-12h-396l-2-172-3-173-17-3-18-3v391h460v-8zM560 2820c19 0 10-18-12-23-27-7-26-8-34 33l-7 33 21-21c12-12 27-22 32-22zm2060-10c0-9-49-20-54-11-2 3-6 18-10 33l-6 27 35-20c19-12 35-25 35-29zm-87 12-5-22h-29c-37 0-36 6 3 30 37 22 39 22 31-8zm-2045-4-5-13-23-3-24-4 13 16c7 9 20 16 28 16h15l-4-12zm-27-47 31-19-23-21-23-21-7 12c-9 19-20 68-14 68 2 0 18-8 36-19zm123-18c-7-21-13-45-14-54v-16h-55c-61 0-68 7-27 27 15 8 29 16 31 17s-2 9-9 18l-12 15h33l5 15 6 15h56l-14-37zm1914 20 29-18-8-20c-4-11-8-15-8-10l-1 10-10-15-9-15-9 10c-10 11-24 75-17 75 2 0 17-8 33-17zm145 5c-14-22-32-81-27-89l4-7h-60l-61 1 22 23 21 23 17-7 16-6-13 17-14 16 7 11c3 5 13 10 21 10s14 5 14 10v10h61l-8-12zm-788-291c10-60 55-379 55-393v-14h-58l-7 40-7 40h-95l-7-40-6-40h-50v17c0 18 59 402 64 418l3 10 51-3 51-4 6-31zm292 10 18-18v-125l-18-28-19-28 16-17 16-18v-183h-60v150l-21 21-20 20-17-3-17-3-5-90-5-90-27-3-28-3v446l85-5 84-5 18-18zm-1398-39c6-35 15-97 22-138 6-41 14-81 18-88l7-13 18 118c9 65 20 133 23 151l5 32h98v-83c0-46-3-145-7-220l-6-137h-47v245l-9 13-8 14-18-99c-9-54-20-114-24-133l-7-35h-59l-22 129c-12 71-24 134-26 140s-8-53-12-131l-7-143h-48v440h98l11-62zm311-105c0-93-3-192-6-220l-7-53h-57v440h70v-167zm122-23-3-190h54c29 0 56-2 59-5s3-17 0-30l-4-25h-178v440h75l-3-190zm218-27-5-218-27-3-28-3v441h65l-5-217zm256 201c-3-9-6-19-6-24v-9l-32-3-33-3-6-165c-3-91-7-177-8-192l-1-28h-60l-2 193-3 192h-65v55h222l-6-16zm628-36c8-29 20-73 27-98l12-45 4 11c2 6 14 49 27 95l22 84 39 3 39 3-11-13c-6-7-28-67-49-133l-38-120-6-85-5-85-27-3-28-3v128l-45 147c-25 82-45 152-45 157v9h69l15-52zM752 2033l18-16v-29c0-15-2-28-4-28s-11-3-20-6l-16-6v19c0 11-6 28-14 38l-14 19-16-13-17-14 3-101 3-101h50l3 33 3 32h39l-7-32c-3-18-10-41-15-50l-9-18h-78l-15 16-16 15v215l16 22 15 22h72l19-17zm172 1 16-15v-75l-16-22-15-22 16-17 17-16-6-36c-3-20-6-44-6-53v-18h-30v34c0 19-4 46-10 60l-10 26h-40v-118l-20-5-20-5v298h109l15-16zm89-88-6-104 7-26 7-27 22 3 22 3 3 128 3 127h44l-5-128-5-129-14-17-13-16h-77l-15 16-16 15v259h48l-5-104zm179-18c-1-68-4-133-7-144l-5-22-15-6-15-5v299h45l-3-122zm153 106 16-16-3-22-3-21-16-3-15-3-12 26-12 27-13-4-12-5-3-26-3-26 43-47 43-46-1-39-1-39-13-15-12-15h-77l-15 16-16 15v49h47l-1-22-1-22 19-4 19-4 7 12 8 13-10 28-10 29-26 21c-34 26-51 57-52 89v26l16 22 15 22h78l16-16zm173-1-3-18-40-5-40-5-3-18c-2-10-1-29 2-43l6-24h69l-5-14-6-15-31-3-32-3v-90l43-3 43-3-4-12-4-12-61-5-62-5v295h131l-3-17zm227 0 17-16-4-113-3-113-12-12-13-13-55-6-55-6v296h109l16-17zm185 9c0-4-5-13-12-20l-12-12h-67l3-42 3-43 33-3 33-3-4-12-4-12-31-3-32-3v-99h89l-5-14-5-14-60-4-59-3v295h130v-8zm134-19c5-25 36-247 36-258 0-3-9-5-19-5h-20l-3 23-3 22h-70l-3-22-3-21-15-6-14-5v22c0 12 9 76 20 142s20 123 20 128c0 4 15 7 34 7h34l6-27zm115-100-4-128 43-3 43-3-4-12-4-12-55-3-55-3-7 38c-3 21-6 86-6 146v107h52l-3-127zm215 114 18-13-4-24-3-25-17-3-18-3v13c0 8-5 19-11 25l-11 11-14-5-14-5v-46l31-33c46-49 59-71 59-99v-26l-16-22-15-22h-77l-10 13c-6 6-13 24-17 40l-7 27h53l-2-12c-1-7-1-19 0-26l1-13 23 3 22 3 3 22 3 22-45 49-46 49v82l16 15 15 16h65l18-13zM770 1169V638l-12 4-13 5-3 526-2 527h30v-531zm100-50V538l-15 12-15 12v1138h30v-581zm1360 12V562l-15-6-15-5v1149h30v-569zm109 72V705l-7-39-7-39-13-5-12-4v1082h40l-1-497zm-845 41c31-12 15-21-71-39-102-20-324-92-403-129-70-33-47-28 115 28l130 44 120 25c66 14 164 31 218 38l98 12 25-13c53-29 37-33-156-49l-135-11-145-30c-80-16-188-43-240-59-52-17-96-28-99-26-2 3 2 5 10 5h14l-14 9-14 9 97 46c52 25 151 65 218 89 68 25 130 47 138 50 21 8 75 8 94 1zm-254-24 14-9-19-7c-11-4-60-24-109-45-49-22-91-38-92-36-2 2 29 26 69 54l72 52h25c14 0 32-3 40-9zm-670-100c0-4-11-10-24-12l-24-5-6 21c-3 12-6 27-6 34v13l30-21c17-12 30-25 30-30zm2045 0c-7-11-44-20-49-12-2 4-6 19-10 34l-6 27 35-20 35-21-5-8zm-2125 15v-16l-15-5c-8-3-19-2-26 2l-12 7 18 14c24 17 35 17 35-2zm2040-5v-20h-13c-8 0-17 3-20 7l-7 6 11 14c16 19 29 16 29-7zm-478-15 88-17-6-9-5-9h-42c-97 0-273-65-381-140l-46-31-48 3-47 3 61 46c34 25 93 61 132 80 40 19 72 37 72 42v7l-97 2c-258 4-445-11-642-52-104-22-118-23-81-9 56 23 263 68 380 83 189 24 192 24 390 21l185-4 87-16zm-1454-17c-3-7-11-34-18-59l-14-46-45 4c-67 7-68 8-33 28l32 19-6 18-5 18h15c9 0 16 4 16 9 0 8 14 13 54 20l8 1-4-12zm2039-5c-15-54-20-79-19-89l2-11-37 3c-21 1-49 2-62 3l-24 1 27 21 26 20 11-7 11-6-11 20-11 21 10 6c25 15 66 35 73 35h8l-4-17zm-2192-3c3-5 15-10 26-10 10 0 19-3 19-7 0-12-20-39-20-29 0 6-6 1-14-10l-14-19-7 30c-4 17-8 36-11 43l-3 12h9c5 0 12-4 15-10zm2059-5 24-16-5-20c-3-11-8-17-11-14-3 2-11 0-17-5l-12-10-11 40-10 40h9c6 0 20-7 33-15zm-925-866c-29-7-34-3-43 34l-7 29 37-28 37-29-24-6zm-69 21v-20h-27l-28 1 24 19c29 25 31 25 31 0zm-25-50c22-11 33-20 26-20h-13l6-16 6-16-15 6-15 5v-9c0-25-17-6-27 30-5 22-10 40-9 40s19-9 41-20zm129-17c-7-21-13-48-14-61V89l-12 7c-6 4-34 7-62 6l-51-2 24 20c13 11 29 20 37 20h13l-5 14-6 14 19 20 18 20 26 1 27 1-14-37zm172 2237c-10-26-33-175-28-188l4-12h28c16 0 31 3 33 8 4 6-19 174-27 197l-4 10-6-15zm238 46c-3-7-4-40-2-72l3-59 23-3 23-4 15 12 14 12v97l-16 15c-8 9-24 16-35 16h-20l-5-14zM840 1966v-45l9-5c5-4 16-3 25 0l16 6v88h-50v-44zm820-67v-110l28 3 27 3 3 85c2 47 0 95-3 108l-5 22h-50v-111zm352 46c-7-22-12-55-12-72v-33h19c28 0 29 7 16 80l-11 65-12-40z"/></g><g fill="#a61e10" transform="matrix(.1 0 0 -.1 0 300)"><path d="M0 1500V0h3000v3000H0V1500zm2748 1484 22-6v-39l-40-38-40-38v-66c0-36-4-77-9-90l-10-25-37-29-37-28-49 2-49 1-22 15c-12 8-37 18-54 21l-32 7-25-16-26-17v-58h-40v390h-70v-410h-9c-5 0-23-12-40-26l-31-26 11-20 11-21-4-63-4-63-19-21-19-21 10-7c6-4 16-17 23-29l11-22v-159l-35-4-35-4v135l-12 26-12 26-25-3-26-3-3-85c-2-47-4-86-5-87-1 0-15-3-32-5l-30-3-3 153-3 153-29-21-30-21v-33c0-18 4-57 9-87s12-73 15-95l6-42-35-4-34-4-6 14c-3 7-5 27-5 43v30l-47-3-48-3-3-30c-4-36-8-40-45-49l-29-7 5 28c3 15 8 45 12 66l6 39-23-8c-13-4-29-15-36-25-7-11-19-19-27-19h-14l-4 28-4 27-2-61-1-62-35-4-35-4v21l-8-11c-4-6-16-14-27-19l-20-9 38-4 37-3-10-20-11-19h-69v-79l33-3 32-3v-30l-30-5-30-5-3-48-3-47h81v-30h-49c-27 0-56-3-65-6l-16-6v255l-18-16c-10-10-21-17-25-17-3 0-18-5-32-10l-26-10 35-42 36-42v-67l-25-24-24-25h-23c-13 0-34 7-46 16l-22 15v59h52l-5-14-6-15 14-11 14-12 11 7c5 3 10 15 10 25v18l-25 30c-14 16-34 32-45 35l-20 5v-9c0-5-7-9-15-9h-15v-130h-9c-5 0-16-3-25-6l-16-6v82h-9c-5 0-12 8-14 18l-5 17-1-36-1-35-14-19-14-19h-43l-43-1-23-20c-12-11-38-33-58-48l-35-29v-543c0-299-3-551-6-559l-6-17-14 12-14 11v1138h-70l-2-537-3-537-17 18-18 17v450c0 247-3 449-6 449s-44-26-91-57c-47-32-93-62-102-68-9-5-18-13-21-16s-37-26-75-51c-39-25-78-53-88-62l-17-17v-238l-11-7-11-6-9 9-9 9v959l-1 960 1168 5c642 3 1191 6 1218 7 28 2 60 0 73-3zm-451-548c13-50 25-91 27-93 1-2 14 38 27 89l25 93 38 3 39 3-8-18c-4-10-27-81-51-158l-44-140v-135h-19c-11 0-26-3-35-6l-16-6v159l-40 134c-22 74-43 142-46 152l-6 18 43-3 42-3 24-89zm98-401c14-13 25-31 25-40v-16l-22-8-23-9-9 25-8 24-17-3-16-4 3-24 3-25 33-35c19-19 38-44 44-56l11-21-10-37-10-37-26-10-26-10-29 6-28 7-10 18c-6 10-10 28-10 39v21h50v-41l16-6 16-6 8 13 8 13-5 16c-3 9-23 34-45 57l-39 40-5 36-6 35 12 22c12 23 42 39 73 40l18 1 24-25zm-640-9 16-25-7-105-7-105-16-14-16-15-51-4-51-5-6 140c-4 77-4 143-1 148l5 9h119l15-24zm173 7-3-18-39-5-40-5v-35l-1-35 33-5c18-3 33-8 32-12v-27l-32-3-33-3v-90l43-3 42-3v-10c0-13-13-16-82-22l-58-6v299h141l-3-17zm158-125c12-79 20-144 20-144-1-1-11-5-24-8l-22-7-6 30-6 31h-58v-39l-21-11c-11-7-22-10-24-8-4 4 29 227 40 276l5 22h76l20-142zm99 15v-128l38-3 37-3v-29h-49c-27 0-56-3-65-6l-16-6v302h55v-127zm43-790-3-576-12-5-13-4v1162h30l-2-577zm107 31V625l-17-3-18-3v1078l7 7c4 3 12 5 17 3l11-4v-539zm-840 83 18-14-7-11-7-12h-25c-50 0-352-85-341-96 2-3 16 0 31 6 94 35 341 86 474 96l82 7 20-18c11-10 20-21 20-24 0-4-66-12-147-19-82-6-186-18-233-27-130-23-236-48-223-52 6-2 46 3 88 12 42 8 138 23 213 31l137 16 195-5 195-5 88-17 87-17v-18h-47c-27 0-85-9-130-20l-83-20-82-41c-46-23-97-53-115-66l-31-24-58 3-57 3 62 45c33 25 93 61 132 81l71 36-32 7c-50 10-300 7-408-4-132-14-271-37-364-61-94-23-104-23-53 2 22 11 32 17 22 14-11-3-30-8-43-11l-24-6v29l123 57c67 32 131 62 142 67 34 16 259 88 276 89 8 0 23-6 34-13zm-251-28c12-11 16-9-74-46-41-17-92-38-113-47l-39-17 7 11c3 6 41 35 83 65l77 55 25-6c14-3 29-10 34-15zm-674-17 34-17 23-34 23-34v-99l-33-32c-18-18-47-38-64-45l-31-12-40 11-41 10-35 35-36 35v89l13 28c25 56 61 80 122 81l30 1 35-17zm2047-1 42-19 17-34 17-33-1-28c0-15-6-43-12-61l-10-33-30-21c-31-24-92-40-128-34l-22 3-34 32-33 32-7 46-7 46 16 39 15 39 22 14c54 34 98 37 155 12zM1603 309l24-11 22-38 21-38v-68l-16-22c-9-13-34-37-57-53l-40-29h-54l-40 29-40 29-17 37-18 38 11 37c11 38 46 83 72 93 8 3 35 6 61 6l47 1 24-11zM770 2775v-195h-40v338H530l-200-1v-573c0-315 3-579 6-588l6-16 29 17c16 10 29 21 29 25s6 8 14 8 25 9 38 20c46 40 80 63 123 85l44 22 4-16c3-9 5 14 6 51l1 67 26 20c32 25 46 26 92 4l36-17 4 12 4 12h54l12 12 12 12v130c0 71-2 127-4 125-3-2-12-47-21-99-8-52-18-107-21-121l-5-27-35-4c-19-2-34-2-34 2 0 20-40 243-44 248-3 3-6-51-6-120v-126l-30-4-30-5v458l52-3 52-3 21-137c12-76 23-140 26-143 3-2 13 50 23 118 10 67 20 132 23 145l5 23 50-3 50-3-2-214c0-118-3-218-6-223-3-4-14-8-24-8s-22-5-25-11l-7-10 33 3 34 3 3 25c2 14 8 35 14 48l12 22 8-12 8-13v395h82l-6-22c-3-13-6-114-6-225v-202l-27-4-28-4 33-2 32-1v152l20 5 20 5v298h80l-4-192-3-193 8 80 9 80 28 23c59 48 72 57 84 57h13l5 70 5 70 38 3 37 3 1-63 1-63 8 25c4 14 8 42 9 63l1 37h110l30 26c30 27 37 32 106 71 22 12 66 42 99 67s65 46 72 46c6 0 13 4 15 8s26 21 53 37c28 16 64 41 80 57l30 28 37 10c20 6 39 14 42 19l5 8-82 6c-45 4-322 7-614 7H880v-340h-40v390h-70v-195zm-180 96c14-10 31-29 37-42l13-24v-50l-1-50-14-19c-8-11-27-28-42-38l-28-18h-86l-22 11c-11 7-29 20-40 29l-19 18-9 41-9 42 6 27c8 34 41 71 79 88l30 14 40-5 40-6 25-18zm-95-43-7-28h-83l40-21c50-27 48-24 32-40-7-8-16-22-20-32l-7-18 33 18c17 10 34 19 36 20 2 2-2 9-9 18l-12 15h15c9 0 20 6 24 14 4 7 15 16 23 20l15 6-26-5-26-5-10 33-10 32-8-27zm2042-8-5-20h-39l-38-1 35-22 36-22-4-17c-2-10-8-18-13-18s-9-8-9-17v-16l23 20 22 20 15-5 15-5-13 16-14 16 7 11c3 5 13 10 21 10 19 0 18 16-1 24l-15 5v21c0 26-16 26-23 0zm-1074-367c9-2 25-2 35 0l17 5h-70l18-5zm567-64v-71l23 6c12 3 25 6 29 6s10 15 13 33l5 32-8 30-8 30-27 3-27 3v-72zm-259-79c0-8-4-32-7-52l-7-38h63v23c0 12-5 29-10 37l-10 15v-12c0-7-4-13-9-13h-10l-4 28c-2 15-5 20-6 12zm-566-230-90-6 98-2 98-2-6 10c-3 6-7 9-8 8s-42-5-92-8zm170 0-30-8 33-1 32-1v10c0 6-1 9-2 9-2-1-16-5-33-9zm-694-117 2-48 4 30 5 30 14 8 14 8-5 10c-4 5-13 9-21 9h-14l1-47zm177 40c7-3 16-2 19 1 4 3-2 6-13 5l-19-1 13-5zm412-4v-10l10 6c6 3 10 8 10 11 0 2-4 4-10 4-5 0-10-5-10-11zm-514-45-20-14h16c9 0 20 5 23 11 11 17 2 18-19 3zm170-41-7-18 12 12c7 7 10 15 7 18s-9-2-12-12zm-81-43-6-10 15 6c18 7 21 14 7 14-6 0-13-4-16-10zm-5-76v-27l-17-13-18-13 23-1h22v40c0 22-2 40-5 40s-5-12-5-26zm-98-23-23-23-29 4-29 4 5-8c3-4 20-8 38-8h33l17 19c10 11 16 23 15 28l-4 8-23-24zm163-21-6-10h51v20h-19c-11 0-23-4-26-10zm765 258c0-2-2-50-3-108l-2-105 17-3 18-3 10 23 11 23-8 85-8 85-17 3c-10 2-18 2-18 0zm349-53c-4-5-10-31-13-57l-7-48h41l-1 18c0 9-3 35-7 57l-8 40-5-10zm-959-896-55-18 35 6c40 7 112 32 90 31-8 0-40-8-70-19zm-564 84-8-33h-72l20-15c10-8 27-15 38-15h18l-6-16c-3-9-6-18-6-20 0-3-4-3-9 0l-9 6-4-24-5-24 33 21 34 22-6 18-5 17h15c9 0 16 4 16 9s8 12 18 14l17 4-27-2-27-1-9 35-9 36-7-32zm2042-4-3-24-39-3-38-3 33-19 34-18-3-18c-2-11-9-22-15-26l-11-7 7-7 7-7 19 17 20 18 11-7 12-7-11 20-11 21 10 6c6 3 22 13 38 21l27 15-30-3-30-3-3 20c-2 11-8 24-12 29l-8 8-4-23zM1520 240v-20l-12-1c-7-1-26 0-43 0l-30 2 30-20c17-12 37-21 45-21h15l-14-9-14-9 7-10 6-10-15-6c-8-3-15-9-15-14v-9l34 16 33 16-5 13-5 13 19 14 19 15-17 11-18 10v39h-20v-20z"/></g><g fill="#123860" transform="matrix(.1 0 0 -.1 0 300)"><path d="M0 1500V0h3000v3000H0V1500zm2748 1484 22-6v-39l-40-38-40-38v-66c0-36-4-77-9-90l-10-25-37-29-37-28-49 2-49 1-22 15c-12 8-37 18-54 21l-32 7-25-16-26-17v-58h-101l-12-10c-7-5-27-21-44-36l-33-26 11-20 11-21-4-63-4-63-19-21-19-21 10-7c6-4 16-17 23-29l11-22v-159l-35-4-35-4v135l-12 26-12 26-25-3-26-3-3-85c-2-47-4-86-5-87-1 0-15-3-32-5l-30-3-3 153-3 153-29-21-30-21v-33c0-18 4-57 9-87s12-73 15-95l6-42-35-4-34-4-6 14c-3 7-5 27-5 43v30l-47-3-48-3-3-30c-4-36-8-40-45-49l-29-7 5 28c3 15 8 45 12 66l6 39-23-8c-13-4-29-15-36-25-7-11-19-19-27-19h-14l-4 28-4 27-2-61-1-62-35-4-35-4v21l-8-11c-4-6-16-14-27-19l-20-9 38-4 37-3-10-20-11-19h-69v-79l33-3 32-3v-30l-30-5-30-5-3-48-3-47h81v-30h-49c-27 0-56-3-65-6l-16-6v255l-18-16c-10-10-21-17-25-17-3 0-18-5-32-10l-26-10 35-42 36-42v-67l-25-24-24-25h-23c-13 0-34 7-46 16l-22 15v59h52l-5-14-6-15 14-11 14-12 11 7c5 3 10 15 10 25v18l-25 30c-14 16-34 32-45 35l-20 5v-9c0-5-7-9-15-9h-15v-130h-9c-5 0-16-3-25-6l-16-6v82h-9c-5 0-12 8-14 18l-5 17-1-36-1-35-14-19-14-19h-43l-43-1-23-20c-12-11-38-33-58-48l-35-29V565l-8-12-7-11-55 49c-30 27-61 54-68 59l-12 11v449c0 248-3 450-6 450s-44-26-91-57c-47-32-93-62-102-68-9-5-18-13-21-16s-37-26-75-51c-39-25-78-53-88-62l-17-17v-238l-11-7-11-6-9 9-9 9v959l-1 960 1168 5c642 3 1191 6 1218 7 28 2 60 0 73-3zm-451-548c13-50 25-91 27-93 1-2 14 38 27 89l25 93 38 3 39 3-8-18c-4-10-27-81-51-158l-44-140v-135h-19c-11 0-26-3-35-6l-16-6v159l-40 134c-22 74-43 142-46 152l-6 18 43-3 42-3 24-89zm98-401c14-13 25-31 25-40v-16l-22-8-23-9-9 25-8 24-17-3-16-4 3-24 3-25 33-35c19-19 38-44 44-56l11-21-10-37-10-37-26-10-26-10-29 6-28 7-10 18c-6 10-10 28-10 39v21h50v-41l16-6 16-6 8 13 8 13-5 16c-3 9-23 34-45 57l-39 40-5 36-6 35 12 22c12 23 42 39 73 40l18 1 24-25zm-640-9 16-25-7-105-7-105-16-14-16-15-51-4-51-5-6 140c-4 77-4 143-1 148l5 9h119l15-24zm173 7-3-18-39-5-40-5v-35l-1-35 33-5c18-3 33-8 32-12v-27l-32-3-33-3v-90l43-3 42-3v-10c0-13-13-16-82-22l-58-6v299h141l-3-17zm158-125c12-79 20-144 20-144-1-1-11-5-24-8l-22-7-6 30-6 31h-58v-39l-21-11c-11-7-22-10-24-8-4 4 29 227 40 276l5 22h76l20-142zm99 15v-128l38-3 37-3v-29h-49c-27 0-56-3-65-6l-16-6v302h55v-127zm153-756 2-537-48-24c-27-13-54-32-61-40-8-9-17-16-22-16h-9v1156l68-2 67-1 3-536zm-843 80 18-14-7-11-7-12h-25c-50 0-352-85-341-96 2-3 16 0 31 6 94 35 341 86 474 96l82 7 20-18c11-10 20-21 20-24 0-4-66-12-147-19-82-6-186-18-233-27-130-23-236-48-223-52 6-2 46 3 88 12 42 8 138 23 213 31l137 16 195-5 195-5 88-17 87-17v-18h-47c-27 0-85-9-130-20l-83-20-82-41c-46-23-97-53-115-66l-31-24-58 3-57 3 62 45c33 25 93 61 132 81l71 36-32 7c-50 10-300 7-408-4-132-14-271-37-364-61-94-23-104-23-53 2 22 11 32 17 22 14-11-3-30-8-43-11l-24-6v29l123 57c67 32 131 62 142 67 34 16 259 88 276 89 8 0 23-6 34-13zm-251-28c12-11 16-9-74-46-41-17-92-38-113-47l-39-17 7 11c3 6 41 35 83 65l77 55 25-6c14-3 29-10 34-15zm-674-17 34-17 23-34 23-34v-99l-33-32c-18-18-47-38-64-45l-31-12-40 11-41 10-35 35-36 35v89l13 28c25 56 61 80 122 81l30 1 35-17zm2047-1 42-19 17-34 17-33-1-28c0-15-6-43-12-61l-10-33-30-21c-31-24-92-40-128-34l-22 3-34 32-33 32-7 46-7 46 16 39 15 39 22 14c54 34 98 37 155 12zM1603 309l24-11 22-38 21-38v-68l-16-22c-9-13-34-37-57-53l-40-29h-54l-40 29-40 29-17 37-18 38 11 37c11 38 46 83 72 93 8 3 35 6 61 6l47 1 24-11zM330 2344c0-315 3-579 6-588l6-16 29 17c16 10 29 21 29 25s6 8 14 8 25 9 38 20c46 40 80 63 123 85l44 22 4-16c3-9 5 14 6 51l1 67 26 20c32 25 46 26 92 4l36-17 4 12 4 12h54l12 12 12 12v130c0 71-2 127-4 125-3-2-12-47-21-99-8-52-18-107-21-121l-5-27-35-4c-19-2-34-2-34 2 0 20-40 243-44 248-3 3-6-51-6-120v-126l-30-4-30-5v458l52-3 52-3 21-137c12-76 23-140 26-143 3-2 13 50 23 118 10 67 20 132 23 145l5 23 50-3 50-3-2-214c0-118-3-218-6-223-3-4-14-8-24-8s-22-5-25-11l-7-10 33 3 34 3 3 25c2 14 8 35 14 48l12 22 8-12 8-13v395h82l-6-22c-3-13-6-114-6-225v-202l-27-4-28-4 33-2 32-1v152l20 5 20 5v298h80l-4-192-3-193 8 80 9 80 28 23c59 48 72 57 84 57h13l5 70 5 70 38 3 37 3 1-63 1-63 8 25c4 14 8 42 9 63l1 37h110l30 26c30 27 37 32 106 71 22 12 66 42 99 67s65 46 72 46c6 0 13 4 15 8s26 21 53 37c28 16 64 41 80 57l30 28 37 10c20 6 39 14 42 19l5 8-82 6c-45 4-322 7-614 7H880v-340H730v338H530l-200-1v-573zm260 527c14-10 31-29 37-42l13-24v-50l-1-50-14-19c-8-11-27-28-42-38l-28-18h-86l-22 11c-11 7-29 20-40 29l-19 18-9 41-9 42 6 27c8 34 41 71 79 88l30 14 40-5 40-6 25-18zm-162-78c12-2 30-2 40 0l17 5-40-1h-40l23-4zm120 0c7-3 16-2 19 1 4 3-2 6-13 5l-19-1 13-5zm1930 0c12-2 30-2 40 0l17 5-40-1h-40l23-4zm-1015-340c9-2 25-2 35 0l17 5h-70l18-5zm567-64v-71l23 6c12 3 25 6 29 6s10 15 13 33l5 32-8 30-8 30-27 3-27 3v-72zm-259-79c0-8-4-32-7-52l-7-38h63v23c0 12-5 29-10 37l-10 15v-12c0-7-4-13-9-13h-10l-4 28c-2 15-5 20-6 12zm-566-230-90-6 98-2 98-2-6 10c-3 6-7 9-8 8s-42-5-92-8zm170 0-30-8 33-1 32-1v10c0 6-1 9-2 9-2-1-16-5-33-9zm-694-117 2-48 4 30 5 30 14 8 14 8-5 10c-4 5-13 9-21 9h-14l1-47zm177 40c7-3 16-2 19 1 4 3-2 6-13 5l-19-1 13-5zm412-4v-10l10 6c6 3 10 8 10 11 0 2-4 4-10 4-5 0-10-5-10-11zm-514-45-20-14h16c9 0 20 5 23 11 11 17 2 18-19 3zm170-41-7-18 12 12c7 7 10 15 7 18s-9-2-12-12zm-81-43-6-10 15 6c18 7 21 14 7 14-6 0-13-4-16-10zm-5-76v-27l-17-13-18-13 23-1h22v40c0 22-2 40-5 40s-5-12-5-26zm-98-23-23-23-29 4-29 4 5-8c3-4 20-8 38-8h33l17 19c10 11 16 23 15 28l-4 8-23-24zm163-21-6-10h51v20h-19c-11 0-23-4-26-10zm765 258c0-2-2-50-3-108l-2-105 17-3 18-3 10 23 11 23-8 85-8 85-17 3c-10 2-18 2-18 0zm349-53c-4-5-10-31-13-57l-7-48h41l-1 18c0 9-3 35-7 57l-8 40-5-10zm-959-896-55-18 35 6c40 7 112 32 90 31-8 0-40-8-70-19zm393-846c9-2 23-2 30 0l12 5h-60l18-5z"/></g><g fill="#041b2e" transform="matrix(.1 0 0 -.1 0 300)"><path d="M0 1500V0h2420v30h30v15c0 8 5 15 10 15 13 0 70 57 70 70 0 6 7 10 15 10h15v30h30v27l25 13 25 13v27h30v30h30v15c0 8 5 15 11 15 14 0 39 25 39 39 0 6 7 11 15 11h15v30h30v27l25 13 25 13v27h30v30h30v15c0 8 5 15 11 15 14 0 39 25 39 39v11h30v2420H0V1500zm2783 1482c3-4-1-25-9-47l-15-40-4-924-5-925-27-29c-16-16-66-59-113-95-47-37-127-102-177-146l-93-79v-67l-42-21c-24-12-53-31-66-42l-23-21-9 14-9 14-18-15c-10-9-50-43-89-75-242-202-329-277-405-350-48-45-101-90-119-99l-32-17-31 13-30 13-77 78c-42 42-93 90-113 105-20 16-115 94-211 176L892 550l-14-5-14-6-46 45c-25 24-55 49-67 55l-21 12v34L607 787c-68 56-143 117-168 134-24 17-58 45-75 61s-46 37-65 47l-34 18 3 959 4 959 16 13 16 12h2475l4-8zM668 2073c6-2 18-2 25 0l12 5h-50l13-5zm1040 0c6-2 18-2 25 0l12 5h-50l13-5zm175 0c9-2 23-2 30 0l12 5h-60l18-5zm135-270c7-3 16-2 19 1 4 3-2 6-13 5l-19-1 13-5zm-282-38-20-15h11c6 0 16 7 23 15 16 19 11 19-14 0zm-399-1c-3-4-21-10-39-14l-33-8 26-1 25-1 20 15c10 8 16 15 13 15s-8-3-12-6zm1011-21c7-3 16-2 19 1 4 3-2 6-13 5l-19-1 13-5z"/></g></g></svg>